<?xml version="1.0" encoding="UTF-8" standalone="no"?>
<svg width="58px" height="58px" viewBox="0 0 58 58" version="1.1" xmlns="http://www.w3.org/2000/svg" xmlns:xlink="http://www.w3.org/1999/xlink">
    <!-- Generator: Sketch 41 (35326) - http://www.bohemiancoding.com/sketch -->
    <title>loading</title>
    <desc>Created with Sketch.</desc>
    <defs></defs>
    <g id="Page-1" stroke="none" stroke-width="1" fill="none" fill-rule="evenodd">
        <g id="Desktop" transform="translate(-591.000000, -800.000000)" fill="#444444">
            <g id="Group" transform="translate(545.000000, 724.000000)">
                <g id="loading" transform="translate(46.000000, 76.000000)">
                    <path d="M29,0 L29,0 C30.0875,0 30.8125,0.725 30.8125,1.8125 L30.8125,9.425 C30.8125,10.5125 30.0875,11.2375 29,11.2375 L29,11.2375 C27.9125,11.2375 27.1875,10.5125 27.1875,9.425 L27.1875,1.8125 C27.1875,0.725 27.9125,0 29,0 L29,0 L29,0 Z M29,46.7625 L29,46.7625 C30.0875,46.7625 30.8125,47.4875 30.8125,48.575 L30.8125,56.1875 C30.8125,57.275 30.0875,58 29,58 L29,58 C27.9125,58 27.1875,57.275 27.1875,56.1875 L27.1875,48.575 C27.1875,47.4875 27.9125,46.7625 29,46.7625 L29,46.7625 L29,46.7625 Z M58,29 L58,29 C58,30.0875 57.275,30.8125 56.1875,30.8125 L48.575,30.8125 C47.4875,30.8125 46.7625,30.0875 46.7625,29 L46.7625,29 C46.7625,27.9125 47.4875,27.1875 48.575,27.1875 L56.1875,27.1875 C57.275,27.1875 58,27.9125 58,29 L58,29 L58,29 Z M11.2375,29 L11.2375,29 C11.2375,30.0875 10.5125,30.8125 9.425,30.8125 L1.8125,30.8125 C0.725,30.8125 0,30.0875 0,29 L0,29 C0,27.9125 0.725,27.1875 1.8125,27.1875 L9.425,27.1875 C10.5125,27.1875 11.2375,27.9125 11.2375,29 L11.2375,29 L11.2375,29 Z M54.0125,14.5 L54.0125,14.5 C54.375,15.225 54.375,16.3125 53.2875,17.0375 L46.7625,21.025 C46.0375,21.3875 44.95,21.3875 44.225,20.3 L44.225,20.3 C43.8625,19.575 43.8625,18.4875 44.95,17.7625 L51.475,13.775 C52.5625,13.4125 53.65,13.4125 54.0125,14.5 L54.0125,14.5 L54.0125,14.5 Z M13.775,37.7 L13.775,37.7 C14.1375,38.425 14.1375,39.5125 13.05,40.2375 L6.525,44.225 C5.8,44.5875 4.7125,44.5875 3.9875,43.5 L3.9875,43.5 C3.625,42.775 3.625,41.6875 4.7125,40.9625 L11.2375,36.975 C11.9625,36.6125 13.05,36.975 13.775,37.7 L13.775,37.7 L13.775,37.7 Z M43.5,3.9875 L43.5,3.9875 C44.225,4.35 44.5875,5.4375 44.225,6.525 L40.2375,13.05 C39.875,13.775 38.7875,14.1375 37.7,13.775 L37.7,13.775 C36.975,13.4125 36.6125,12.325 36.975,11.2375 L40.9625,4.7125 C41.6875,3.625 42.775,3.2625 43.5,3.9875 L43.5,3.9875 L43.5,3.9875 Z M20.3,44.225 L20.3,44.225 C21.025,44.5875 21.3875,45.675 21.025,46.7625 L17.0375,53.2875 C16.3125,54.375 15.225,54.375 14.5,54.0125 L14.5,54.0125 C13.775,53.65 13.4125,52.5625 13.775,51.475 L17.7625,44.95 C18.125,43.8625 19.2125,43.8625 20.3,44.225 L20.3,44.225 L20.3,44.225 Z M14.5,3.9875 L14.5,3.9875 C15.225,3.2625 16.3125,3.625 17.0375,4.35 L21.025,10.875 C21.3875,11.6 21.3875,12.6875 20.3,13.4125 L20.3,13.4125 C19.2125,14.1375 18.125,13.775 17.7625,13.05 L13.775,6.1625 C13.4125,5.4375 13.775,4.35 14.5,3.9875 L14.5,3.9875 L14.5,3.9875 Z M37.7,44.225 L37.7,44.225 C38.425,43.8625 39.5125,43.8625 40.2375,44.95 L44.225,51.475 C44.5875,52.2 44.5875,53.2875 43.5,54.0125 L43.5,54.0125 C42.775,54.375 41.6875,54.375 40.9625,53.2875 L36.975,46.7625 C36.6125,45.675 36.975,44.5875 37.7,44.225 L37.7,44.225 L37.7,44.225 Z M3.9875,14.5 L3.9875,14.5 C4.35,13.775 5.4375,13.4125 6.525,13.775 L13.05,17.7625 C13.775,18.125 14.1375,19.2125 13.775,19.9375 L13.775,19.9375 C13.05,21.025 11.9625,21.3875 11.2375,20.6625 L4.7125,17.0375 C3.625,16.3125 3.2625,15.225 3.9875,14.5 L3.9875,14.5 L3.9875,14.5 Z M44.225,37.7 L44.225,37.7 C44.5875,36.975 45.675,36.6125 46.7625,36.975 L53.2875,40.9625 C54.0125,41.325 54.375,42.4125 54.0125,43.5 L54.0125,43.5 C53.65,44.225 52.5625,44.5875 51.475,44.225 L44.95,40.2375 C44.225,39.875 43.8625,38.7875 44.225,37.7 L44.225,37.7 L44.225,37.7 Z" id="Shape"></path>
                </g>
            </g>
        </g>
    </g>
</svg>