<?xml version="1.0" encoding="UTF-8" standalone="no"?>
<svg width="110px" height="121px" viewBox="0 0 110 121" version="1.1" xmlns="http://www.w3.org/2000/svg" xmlns:xlink="http://www.w3.org/1999/xlink">
    <!-- Generator: Sketch 41 (35326) - http://www.bohemiancoding.com/sketch -->
    <title>Group 4</title>
    <desc>Created with Sketch.</desc>
    <defs></defs>
    <g id="Page-1" stroke="none" stroke-width="1" fill="none" fill-rule="evenodd">
        <g id="Desktop" transform="translate(-478.000000, -184.000000)">
            <g id="Group-4" transform="translate(535.675456, 243.723843) rotate(-18.000000) translate(-535.675456, -243.723843) translate(464.675456, 188.223843)">
                <g id="syringe-2" transform="translate(52.966624, 57.522983) rotate(-175.000000) translate(-52.966624, -57.522983) translate(4.966624, 9.022983)">
                    <g id="Group" transform="translate(0.000000, 0.000000)">
                        <polygon id="Shape" fill="#FFFFFF" points="71.3584581 18.2533398 80.3382152 9.25675329 87.1326787 16.044162 78.1454838 25.034933"></polygon>
                        <path d="M28.66871,84.973407 C27.9552499,84.973407 27.2683943,84.6864513 26.7496529,84.1679289 L12.2075385,69.6339548 C11.6868899,69.1135258 11.4009146,68.4220673 11.4028217,67.6850392 C11.4037753,66.9499178 11.6907041,66.2602707 12.2113527,65.7435597 L17.9419196,60.0143598 L25.7815899,67.8483466 L27.7177159,65.9145891 L19.8752803,58.0806024 L27.060421,50.8981291 L34.8971352,58.7359292 L36.8313541,56.8021717 L28.9936863,48.9643716 L36.1788269,41.7818983 L54.6074969,60.2042655 L30.6305824,84.1755556 C30.1166089,84.69036 29.431565,84.9735023 28.7029431,84.9735023 L28.66871,84.9735023 L28.66871,84.973407 Z" id="Shape" fill="#444444"></path>
                        <polygon id="Shape" fill="#FFFFFF" points="36.1701495 41.7971517 45.2943722 32.6637608 53.1310864 40.4996542 55.0691196 38.5658967 47.2333589 30.7300033 54.4175461 23.54753 62.2571209 31.3815168 64.1895281 29.449666 56.3460435 21.6174905 63.5985062 14.3686646 82.029274 32.7929385 54.5960542 60.2158009"></polygon>
                        <path d="M94.9001638,19.123359 L76.3441924,0.569907448 C75.5841981,-0.189905522 74.3529501,-0.189905522 73.5929558,0.569907448 C72.8329615,1.32972042 72.8329615,2.56067471 73.5929558,3.32048777 L77.5906975,7.31727576 L69.4185178,15.4988508 L59.160025,5.24290041 C58.3999354,4.48308744 57.1687827,4.48308744 56.408693,5.24290041 C55.6486987,6.00271338 55.6486987,7.23366767 56.408693,7.99357608 L60.8472695,12.4310938 L9.86376176,63.4033928 C7.50491867,65.7616732 7.50110443,69.60545 9.85994753,71.9752658 L15.7587239,77.8669149 L0.657055319,92.966983 C-0.102938947,93.726796 -0.102938947,94.9577503 0.657055319,95.7175634 C1.021444,96.0830123 1.51653866,96.2881259 2.03267363,96.2874708 C2.53043654,96.2874708 3.02829481,96.0975652 3.40838732,95.7175634 L18.5110094,80.6166372 L24.4088323,86.5082865 C25.5545451,87.6538214 27.0773945,88.2853146 28.6963636,88.2853146 L28.7000824,88.2853146 C30.317049,88.2843612 31.837133,87.6527726 32.9790316,86.5082865 L83.9633976,35.5398008 L88.4058837,39.9811319 C88.7857855,40.3610384 89.2836438,40.5510393 89.781502,40.5510393 C90.2793603,40.5510393 90.7771232,40.3610384 91.1571204,39.9811319 C91.9171146,39.2213189 91.9171146,37.9902693 91.1571204,37.2304562 L80.8967204,26.9725039 L89.0707119,18.7966489 L92.1488318,21.8740347 C92.5289243,22.2539412 93.0267826,22.4438468 93.5246409,22.4438467 C94.0224992,22.4438466 94.5202621,22.2539411 94.9001638,21.8740347 C95.6602535,21.1142217 95.6602535,19.8832675 94.9001638,19.123359 L94.9001638,19.123359 Z M30.2257925,83.7595175 C29.8172836,84.1688822 29.2748937,84.3939661 28.6972218,84.3949195 L28.6962682,84.3949195 C28.1167845,84.3949195 27.5714384,84.1680243 27.1600689,83.7566574 L19.9009313,76.5048762 C19.8961634,76.5001095 19.8942563,76.4926735 19.8894885,76.4877161 C19.8847206,76.4831401 19.8780457,76.4811381 19.8723242,76.4764666 L12.6150938,69.2265921 C11.7695643,68.3774511 11.7695643,66.9992055 12.6150938,66.1539731 L17.9400125,60.8302293 L26.7496529,69.6311901 L29.5009848,66.8786078 L20.692298,58.0786957 L27.059372,51.7130452 L35.8633864,60.5178194 L38.614623,57.7670484 L29.810704,48.9624649 L36.0447552,42.7288522 L53.6556446,60.3363986 L30.2257925,83.7595175 Z M56.408693,57.5857229 L38.7961825,39.9783672 L45.2962794,33.479821 L54.1001984,42.2835464 L56.8516257,39.5328708 L48.0476114,30.7291453 L54.4175461,24.3616835 L63.2224186,33.1635023 L65.9737506,30.4128266 L57.168878,21.6110078 L63.5986969,15.1817694 L68.0428995,19.6250072 C68.0448066,19.6250072 68.0448066,19.6259606 68.0448066,19.6269139 L72.4073837,23.987497 L81.2122563,32.7893158 L56.408693,57.5856276 L56.408693,57.5857229 Z M78.1454838,24.2219236 L72.1716615,18.2504797 L80.3418388,10.0689047 L86.3195706,16.0459734 L78.1455792,24.2218282 L78.1454838,24.2219236 Z" id="Shape" fill="#444444"></path>
                    </g>
                </g>
                <g id="water" transform="translate(125.117782, 17.415129) rotate(-48.000000) translate(-125.117782, -17.415129) translate(115.117782, 3.915129)" fill="#444444">
                    <path d="M9.9824285,25.3665821 C6.06347822,25.3665821 2.8865413,21.6299985 2.8865413,17.0206891 C2.8865413,11.4567604 9.9824285,2.06763077 9.9824285,2.06763081 C9.9824285,2.06763084 17.0783157,11.4567604 17.0783157,17.0206891 C17.0783157,21.6299985 13.9013788,25.3665821 9.9824285,25.3665821 Z" id="Shape" transform="translate(9.982429, 13.717106) rotate(-14.000000) translate(-9.982429, -13.717106) "></path>
                </g>
            </g>
        </g>
    </g>
</svg>