<?xml version="1.0" encoding="UTF-8" standalone="no"?>
<svg width="54px" height="45px" viewBox="0 0 54 45" version="1.1" xmlns="http://www.w3.org/2000/svg" xmlns:xlink="http://www.w3.org/1999/xlink">
    <!-- Generator: Sketch 41 (35326) - http://www.bohemiancoding.com/sketch -->
    <title>mail</title>
    <desc>Created with Sketch.</desc>
    <defs></defs>
    <g id="Page-1" stroke="none" stroke-width="1" fill="none" fill-rule="evenodd">
        <g id="Desktop" transform="translate(-810.000000, -805.000000)" fill="#444444">
            <g id="Group" transform="translate(762.000000, 724.000000)">
                <g id="mail" transform="translate(48.500000, 81.000000)">
                    <path d="M47.4229911,44.581318 L5.58849578,44.581318 C2.51246644,44.581318 0.0115474033,42.0836486 0.0115474033,39.0102541 L0.0115474033,5.58870518 C0.0115474033,2.51857392 2.51252693,0.0192728988 5.58849578,0.0192728988 L47.4229911,0.0192728988 C50.4990204,0.0192728988 52.9999394,2.51851345 52.9999394,5.58870518 L52.9999394,11.1597691 C52.9999394,11.8199766 52.5395607,12.372315 51.9240281,12.5155363 C50.3320061,13.155439 35.9774244,21.2696163 27.1997305,26.293418 C26.7494574,26.5493429 26.1962525,26.5359272 25.7577793,26.2613897 L10.4183575,16.5119523 C9.76911942,16.0992697 9.57681086,15.2387337 9.98998982,14.5886181 C10.4048027,13.9402551 11.2649266,13.7499582 11.915859,14.1625803 L26.543715,23.4589672 C42.4582472,14.3545693 48.0924403,11.3029298 50.2123125,10.2823125 L50.2123125,5.58870518 C50.2123125,4.05273306 48.9592812,2.80483505 47.4229911,2.80483505 L5.58849578,2.80483505 C4.05214521,2.80483505 2.80086875,4.05273306 2.80086875,5.58870518 L2.80086881,39.0102541 C2.80086881,40.5461053 4.05220576,41.7958163 5.58849584,41.7958163 L47.4229911,41.7958163 C48.9592812,41.7958163 50.2123125,40.5461053 50.2123125,39.0102541 L50.2123125,22.3002652 C50.2123125,21.5306173 50.8346225,20.9075144 51.6053091,20.9075144 C52.3759957,20.9075144 53,21.5306778 53,22.3002652 L53,39.0102541 C52.9999394,42.0836486 50.4990205,44.581318 47.4229911,44.581318 Z" id="Shape"></path>
                </g>
            </g>
        </g>
    </g>
</svg>